<?xml version="1.0" encoding="UTF-8"?><svg id="Calque_1" xmlns="http://www.w3.org/2000/svg" viewBox="0 0 513 513"><defs><style>.cls-1{fill:#063f34;}</style></defs><path class="cls-1" d="M418.24,256.5c0,89.33-72.42,161.74-161.74,161.74s-161.74-72.42-161.74-161.74,72.42-161.74,161.74-161.74,161.74,72.42,161.74,161.74ZM251.8,180.46v-74.36c-2.45-2.71-10.27,1.07-13.3,2.67-20.92,11.06-35.43,42.66-42.61,64.18,18.04,4.98,37.27,8.36,55.91,7.51ZM261.78,104.61v75.85c6.24,1.79,54.33-4.58,54.97-7.61-8.84-26.76-24.84-61.62-54.97-68.25ZM219.86,109.61c-27.25,6.02-52.14,22.3-70.79,42.43,3.6,3.91,34.79,19.31,36.84,17.44,6.76-22.11,18.18-42.95,33.95-59.87ZM326.69,169.45c2.47,2.16,30.97-12.49,34.83-15.49.88-.68,2.23-1.44,1.99-2.8-18.9-19.55-42.77-35.83-69.79-41.54,14.81,17.5,26.76,37.68,32.97,59.84ZM107.58,252.32h64.37c-.12-24.63,4.51-48.96,9.98-72.85-9.95-2.1-19.74-6.99-28.62-11.81-2.44-1.33-9.27-6.85-10.98-7.01-2.54-.25-11.03,13.19-12.72,15.91-13.87,22.34-21.3,47.16-23.49,73.37-.16.87.81,2.21,1.45,2.4ZM406.5,252.32c-.6-33.29-13.87-65.96-34.53-91.75-1.13-.27-16.19,9.4-18.98,10.79-3.07,1.53-21.92,8.5-22.22,9.68,5.01,18.56,8.26,37.65,9.85,56.82.39,4.69-1.38,10.86,1.51,14.46h64.37ZM250.8,191.44c-19.98.41-39.57-3.6-58.88-7.99-2.92,13.72-6.42,27.44-7.98,41.43-.92,8.32-.46,16.79-1.96,25.04-.23.83,1.02,2.4,1.45,2.4h67.37v-60.88ZM261.78,191.44v60.88h67.87c.06-1.2.8-2.24.82-3.45.15-7.76-1.05-18.93-1.94-26.86-1.47-13.03-4.7-25.9-7.87-38.56-19.19,4.91-39.03,7.9-58.87,7.99ZM171.96,263.3h-65.87c2.27,32.63,13.96,65.08,35.56,89.7l40.19-20.49c-6.04-22.53-9.6-45.78-9.88-69.21ZM250.8,263.3h-68.87c1.55,22.51,3.99,45.07,10.03,66.84,19.23-4.65,38.92-8.47,58.84-7.96v-58.89ZM330.65,263.3h-68.87v58.89c19.89-.44,39.74,2.94,58.87,7.99,5.98-21.78,9.39-44.25,9.99-66.88ZM406.5,263.3h-65.87c.41,23.48-3.95,46.72-9.86,69.29.29,1.14,18.54,7.89,21.52,9.38,3.18,1.6,18.01,11.49,19.69,11.24,20.42-25.32,33.42-57.08,34.53-89.91ZM250.8,332.17c-18.5,1.19-37.23,2.83-54.93,8.54,8.84,27.43,24.61,60.44,54.93,68.31v-76.85ZM261.78,409.02c19.4-4.19,33.27-21.29,42.44-37.9,2.31-4.18,12.77-26.26,12.52-29.46-.12-1.53-.55-1.68-1.76-2.3-3.12-1.59-21.24-4.44-25.87-5.06-9.02-1.2-18.27-1.22-27.32-2.12v76.85ZM185.87,344.18c-13.4,2.88-25.47,10.11-36.87,17.42,18.85,19.74,43.15,34.87,69.86,41.41-15.36-16.7-26.7-36.99-32.99-58.84ZM293.72,403.02c26.19-5.96,51.9-21.4,69.82-41.3-.48-2.8-34.03-19.45-36.78-17.49-6.3,21.83-17.45,42.23-33.03,58.78Z"/></svg>